{"title":"[ShepardTDS] Unbreakable Machine Doll Dual Audio Uncensored [720","uid":12712633,"size":2680382518,"categoryP":"video","categoryS":"tv_shows","magnet":"?xt=urn:btih:0d05b424861160b3a8c47a5fb3520a8cd9a7064c&amp;dn=%5BShepardTDS%5D+Unbreakable+Machine+Doll+Dual+Audio+Uncensored+%5B720&amp;tr=udp%3A%2F%2Ftracker.leechers-paradise.org%3A6969&amp;tr=udp%3A%2F%2Fzer0day.ch%3A1337&amp;tr=udp%3A%2F%2Fopen.demonii.com%3A1337&amp;tr=udp%3A%2F%2Ftracker.coppersurfer.tk%3A6969&amp;tr=udp%3A%2F%2Fexodus.desync.com%3A6969","seeders":1,"leechers":0,"uploader":"ShepardTDS","files":23,"time":1446900695,"description":"Constant Quality encoding.\r\nVariable Bit rates\r\nED and OP included\r\nAll 6 OVAs\r\nBlu-Ray Source\r\n\r\n\r\nGeneral\r\n\r\nFormat : Matroska\r\nFile size : 150 MiB-200 MiB\r\nDuration : 23mn 41s\r\nOverall bit rate : 884 Kbps-1,182 Kbps\r\nEncoded date : UTC 2015-11-03 13:30:41\r\nWriting application : mkvmerge v7.7.0 ('Six Voices') 32bit built on Feb 28 2015 23:23:00\r\nWriting library : libebml v1.3.1 + libmatroska v1.4.2\r\n\r\nVideo\r\nID : 1\r\nFormat : V_MPEGH/ISO/HEVC\r\nCodec ID : V_MPEGH/ISO/HEVC\r\nDuration : 23mn 41s\r\nBit rate : 482 Kbps-775 Kbps\r\nWidth : 1 280 pixels\r\nHeight : 720 pixels\r\nDisplay aspect ratio : 16:9\r\nFrame rate : 23.976 fps\r\nBits/(Pixel*Frame) : 0.022\r\nStream size : 81.7 MiB (55%)\r\n\r\nAudio #1\r\nID : 2\r\nFormat : AC-3\r\nFormat/Info : Audio Coding 3\r\nMode extension : CM (complete main)\r\nCodec ID : A_AC3\r\nDuration : 23mn 41s\r\nBit rate mode : Constant\r\nBit rate : 192 Kbps\r\nChannel(s) : 6 channels\r\nChannel positions : Front: L C R, Side: L R, LFE\r\nSampling rate : 48.0 KHz\r\nBit depth : 16 bits\r\nCompression mode : Lossy\r\nStream size : 32.5 MiB (22%)\r\nLanguage : English\r\n\r\nAudio #2\r\nID : 3\r\nFormat : AC-3\r\nFormat/Info : Audio Coding 3\r\nMode extension : CM (complete main)\r\nCodec ID : A_AC3\r\nDuration : 23mn 41s\r\nBit rate mode : Constant\r\nBit rate : 192 Kbps\r\nChannel(s) : 2 channels\r\nChannel positions : Front: L R\r\nSampling rate : 48.0 KHz\r\nBit depth : 16 bits\r\nCompression mode : Lossy\r\nStream size : 32.5 MiB (22%)\r\nLanguage : Japanese\r\n\r\nText #1\r\nID : 4\r\nFormat : ASS\r\nCodec ID : S_TEXT/ASS\r\nCodec ID/Info : Advanced Sub Station Alpha\r\nCompression mode : Lossless\r\nTitle : English Signs/Songs\r\nLanguage : English\r\n\r\nText #2\r\nID : 5\r\nFormat : ASS\r\nCodec ID : S_TEXT/ASS\r\nCodec ID/Info : Advanced Sub Station Alpha\r\nCompression mode : Lossless\r\nTitle : English Subtitles\r\nLanguage : English\r\n\r\nMenu\r\n00:00:00.000 : en:Prologue\r\n00:01:08.986 : en:Part A\r\n00:09:48.046 : en:Part B\r\n00:22:04.990 : en:Ending","torrent":{"xt":"urn:btih:0d05b424861160b3a8c47a5fb3520a8cd9a7064c","amp;dn":"%5BShepardTDS%5D+Unbreakable+Machine+Doll+Dual+Audio+Uncensored+%5B720","amp;tr":["udp%3A%2F%2Ftracker.leechers-paradise.org%3A6969","udp%3A%2F%2Fzer0day.ch%3A1337","udp%3A%2F%2Fopen.demonii.com%3A1337","udp%3A%2F%2Ftracker.coppersurfer.tk%3A6969","udp%3A%2F%2Fexodus.desync.com%3A6969"],"infoHash":"0d05b424861160b3a8c47a5fb3520a8cd9a7064c","infoHashBuffer":{"type":"Buffer","data":[13,5,180,36,134,17,96,179,168,196,122,95,179,82,10,140,217,167,6,76]},"announce":[],"urlList":[]}}